<?xml version="1.0" standalone="no"?><!DOCTYPE svg PUBLIC "-//W3C//DTD SVG 1.1//EN" "http://www.w3.org/Graphics/SVG/1.1/DTD/svg11.dtd"><svg class="icon" height="512" viewBox="0 0 1024 1024" version="1.1" xmlns="http://www.w3.org/2000/svg"><path d="M238.795853 824.87143C238.795853 824.87143 184.758065 636.486545 403.373578 418.330562 621.989093 200.17458 815.043397 33.279271 834.496946 10.522209 835.385215 17.75664 818.324314 330.058532 654.862076 543.765197 491.399838 757.471862 262.886461 851.946358 258.241096 855.784281 253.595732 859.622203 148.654224 1004.019263 135.851367 1005.591256 123.04851 1007.163249 217.93976 849.379276 217.93976 849.379276 217.93976 849.379276 215.315377 876.043521 228.962884 865.167585 325.939284 740.889591 379.436865 614.691071 490.594247 460.013161 601.751629 305.335252 730.855749 166.772765 730.855754 166.772764 730.855761 166.772763 521.327085 390.057775 406.886401 548.183712 292.445719 706.309648 238.795853 824.87143 238.795853 824.87143ZM591.877257 896.107287C698.714581 908.014642 803.2812 932.621899 904.527424 966.152154 852.148934 956.264432 799.892818 946.674598 747.250547 939.946137 694.766002 932.482518 642.107415 926.754307 589.590236 923.417407 544.045617 921.012432 498.552664 920.00945 453.617192 923.469333 463.211258 925.191076 472.843396 926.893688 482.453778 928.650959 508.617188 933.551092 534.919288 938.415699 561.468853 944.616705 574.804824 947.882552 587.964031 951.063675 602.137577 956.611513 605.70272 958.068162 609.354882 959.650526 613.496539 962.110159 615.593201 963.391899 617.831273 964.815754 620.452781 967.272653 622.845858 969.81974 626.761804 973.367076 628.10791 981.65877 629.225587 990.30028 624.646106 996.957684 621.937577 999.731603 618.948948 1002.841671 616.501482 1004.29832 614.282447 1005.667515L610.78801 1007.512239 608.060446 1008.758454 602.363288 1010.952992C572.914836 1020.296864 546.297285 1021.245188 519.013478 1023.018857 491.958104 1024.352523 465.095807 1024.161219 438.320529 1023.423328 331.219423 1020.559225 225.116341 1009.195721 119.676791 993.424013 172.998914 994.161902 226.130678 996.165136 279.295075 996.197931 332.407805 997.006878 385.504216 997.198182 438.355881 996.110477 464.764038 995.408115 491.101491 994.265753 517.142528 992.352706 537.312365 990.595435 558.300745 988.471952 576.722005 983.940762 569.295304 981.781752 561.585787 979.794916 553.775652 978.00485 528.452539 972.350428 502.376149 967.78371 476.212739 963.145936 449.997661 958.174746 423.97294 953.73101 396.849581 946.898698 389.700261 944.808011 383.690372 943.701176 373.867876 938.626135 372.399396 937.713338 371.036974 936.956317 368.817938 934.991344 367.088395 933.111091 362.734625 929.897172 362.054774 920.605227 361.897049 916.177889 363.626591 912.0867 365.217443 909.76918 366.772944 907.397 368.450819 905.904824 369.500509 905.008425 372.051312 903.005191 373.538828 902.357487 375.12696 901.529411 380.701745 899.017853 384.285922 898.351019 388.182832 897.438222 402.98728 894.41834 416.075785 893.08194 429.901248 891.975106 484.23499 887.922178 538.500745 889.977337 591.877257 896.107287L591.877257 896.107287Z" /></svg>